#!OML:ASF F:\VICON\USERDATA\INSTALL\Justin_Nancy\Justin_Nancy.ASF
:FULLY-SPECIFIED
:DEGREES
65
root 13.7835 17.4886 -8.63056 -3.78233 -14.836 -0.013664
lowerback 17.4192 1.17157 -0.0233241
upperback 2.10393 1.63364 1.37841
thorax -7.546 0.802659 1.10729
lowerneck -18.8622 -3.028 -9.74396
upperneck 21.0432 -3.11552 7.25699
head 10.0922 -1.38443 3.75662
rclavicle 4.87022e-015 -1.03368e-014
rhumerus -60.3219 10.5402 -92.17
rradius 113.883
rwrist -12.1632
rhand -6.10025 20.9418
rfingers 7.12502
rthumb 19.736 -8.07625
lclavicle 4.87022e-015 -1.03368e-014
lhumerus -37.3895 -3.15272 83.7357
lradius 105.423
lwrist 18.4949
lhand -18.8213 4.70441
lfingers 7.12502
lthumb 7.47761 34.5522
rfemur -33.3934 -13.0632 21.1899
rtibia 55.9224
rfoot -3.10881 -0.171387
rtoes -19.3201
lfemur -25.378 -1.66804 -4.7528
ltibia 51.6012
lfoot 1.34816 6.23918
ltoes -14.481
66
root 13.7232 17.4505 -8.31698 -3.78618 -15.2808 0.825097
lowerback 17.5344 1.38452 -1.01891
upperback 2.09436 1.7045 1.1309
thorax -7.64229 0.862972 1.38863
lowerneck -18.476 -3.25628 -10.0023
upperneck 20.8751 -3.44104 7.4599
head 10.0011 -1.53751 3.82279
rclavicle 1.54058e-015 -9.54166e-015
rhumerus -59.7165 10.7788 -91.9667
rradius 113.103
rwrist -11.8743
rhand -5.9159 20.9854
rfingers 7.12502
rthumb 19.9132 -8.0144
lclavicle 1.54058e-015 -9.54166e-015
lhumerus -38.2145 -3.01562 83.557
lradius 105.582
lwrist 18.2203
lhand -18.8151 4.4445
lfingers 7.12502
lthumb 7.48367 34.2921
rfemur -34.2464 -12.5374 19.9443
rtibia 54.1556
rfoot -1.93503 -0.337018
rtoes -21.1488
lfemur -24.8901 -3.04641 -4.50814
ltibia 47.7318
lfoot 0.844275 7.01181
ltoes -15.7338
67
root 13.6675 17.3901 -7.99624 -3.66069 -15.5606 1.22523
lowerback 17.4147 1.56316 -1.45579
upperback 2.21895 1.83787 0.90084
thorax -7.45234 0.934893 1.36168
lowerneck -18.3602 -3.45073 -9.82696
upperneck 20.6279 -3.78739 7.54892
head 9.92414 -1.67295 3.77051
rclavicle -7.95139e-015 -4.37326e-015
rhumerus -59.0129 10.7129 -91.683
rradius 112.422
rwrist -11.5269
rhand -6.00782 21.1669
rfingers 7.12502
rthumb 19.8248 -7.84198
lclavicle -7.95139e-015 -4.37326e-015
lhumerus -38.536 -3.24186 83.3115
lradius 105.38
lwrist 17.7937
lhand -18.739 4.7806
lfingers 7.12502
lthumb 7.55712 34.6256
rfemur -35.163 -12.179 19.1485
rtibia 52.571
rfoot -0.735219 -0.861989
rtoes -19.8069
lfemur -24.5165 -4.58037 -3.68585
ltibia 43.7291
lfoot 1.39285 7.54047
ltoes -16.8359
68
root 13.6137 17.3173 -7.67293 -3.54118 -15.6889 1.6259
lowerback 17.2246 1.62724 -1.84457
upperback 2.44446 1.83463 0.694919
thorax -7.10998 0.937043 1.36921
lowerneck -18.7588 -3.69181 -9.85117
upperneck 20.4164 -4.11194 7.73262
head 9.96025 -1.79402 3.78849
rclavicle 1.00883e-014 -5.96354e-015
rhumerus -58.068 10.9117 -91.3877
rradius 111.808
rwrist -11.2148
rhand -6.373 21.1375
rfingers 7.12502
rthumb 19.4738 -7.90727
lclavicle 1.00883e-014 -5.96354e-015
lhumerus -38.6082 -3.22524 83.0356
lradius 105.024
lwrist 17.5447
lhand -19.0014 4.92293
lfingers 7.12502
lthumb 7.30381 34.7769
rfemur -36.1382 -12.1929 18.3588
rtibia 51.0712
rfoot 0.542978 -1.18196
rtoes -19.2211
lfemur -24.1764 -6.14407 -2.83118
ltibia 39.7808
lfoot 2.34698 7.44244
ltoes -18.0697
69
root 13.5675 17.2351 -7.34117 -3.63081 -16.161 2.20906
lowerback 17.2011 1.73919 -2.31802
upperback 2.55992 1.87595 0.461351
thorax -6.9814 0.963696 1.38055
lowerneck -18.8956 -3.93705 -10.0031
upperneck 20.4131 -4.42062 7.83163
head 10.0223 -1.93439 3.80388
rclavicle -9.93923e-016 -1.98785e-015
rhumerus -57.397 11.2663 -91.2051
rradius 111.179
rwrist -10.8515
rhand -6.72304 20.9105
rfingers 7.12502
rthumb 19.1372 -8.168
lclavicle -9.93923e-016 -1.98785e-015
lhumerus -39.1942 -2.95875 82.8529
lradius 104.766
lwrist 17.3145
lhand -19.477 5.07619
lfingers 7.12502
lthumb 6.84473 34.9455
rfemur -36.8166 -11.9996 17.3243
rtibia 49.6926
rfoot 1.56047 -1.07205
rtoes -17.7046
lfemur -23.4764 -7.51726 -2.17613
ltibia 36.1395
lfoot 3.11208 7.6068
ltoes -19.4356
70
root 13.5287 17.1619 -6.98939 -3.98523 -17.3448 2.79392
lowerback 17.2307 2.04646 -2.64759
upperback 2.61155 2.19355 0.153749
thorax -6.95549 1.12049 1.1651
lowerneck -18.1178 -4.07125 -10.1185
upperneck 20.1821 -4.68339 7.99845
head 9.82999 -2.06124 3.84377
rclavicle -4.19436e-014 1.94809e-014
rhumerus -57.0593 11.5576 -91.1458
rradius 110.614
rwrist -10.6917
rhand -6.62885 20.6891
rfingers 7.12502
rthumb 19.2277 -8.38041
lclavicle -4.19436e-014 1.94809e-014
lhumerus -40.1504 -2.81503 82.5517
lradius 104.454
lwrist 17.0117
lhand -19.5898 5.28668
lfingers 7.12502
lthumb 6.73582 35.1595
rfemur -37.3433 -11.393 16.3995
rtibia 48.3176
rfoot 2.58261 -0.324949
rtoes -16.9473
lfemur -22.1159 -8.7205 -1.60618
ltibia 32.9811
lfoot 3.62211 7.68721
ltoes -19.918
71
root 13.4939 17.0592 -6.65257 -4.01885 -18.2416 3.02433
lowerback 17.2144 2.13116 -2.74967
upperback 2.58726 2.27789 0.0562514
thorax -6.97625 1.16265 1.09917
lowerneck -17.2792 -4.21748 -10.5307
upperneck 19.8261 -4.90078 8.2535
head 9.59019 -2.18216 3.97081
rclavicle -3.55825e-014 -1.43125e-014
rhumerus -56.4746 12.2575 -90.992
rradius 109.989
rwrist -10.6122
rhand -6.76175 20.344
rfingers 7.12502
rthumb 19.0999 -8.73812
lclavicle -3.55825e-014 -1.43125e-014
lhumerus -41.0187 -2.43133 82.3315
lradius 104.166
lwrist 17.0456
lhand -19.5797 5.47418
lfingers 7.12502
lthumb 6.74558 35.3467
rfemur -38.3035 -11.2078 16.0463
rtibia 47.1268
rfoot 3.6782 0.807049
rtoes -18.7952
lfemur -21.2884 -9.70639 -0.708795
ltibia 30.4021
lfoot 3.94939 8.11893
ltoes -22.8928
72
root 13.4628 16.9363 -6.31382 -4.10631 -18.8866 3.1904
lowerback 17.1904 2.12348 -2.75625
upperback 2.66095 2.26586 0.0453254
thorax -6.88312 1.15479 1.09628
lowerneck -16.8067 -4.49681 -10.944
upperneck 19.5683 -5.23212 8.32589
head 9.46319 -2.36869 4.0173
rclavicle 1.22253e-014 -1.15295e-014
rhumerus -55.6525 12.9013 -90.6717
rradius 109.364
rwrist -10.6911
rhand -6.91214 20.0261
rfingers 7.12502
rthumb 18.9553 -9.0703
lclavicle 1.22253e-014 -1.15295e-014
lhumerus -41.9827 -1.96134 82.4633
lradius 104.092
lwrist 17.2379
lhand -19.7688 5.31538
lfingers 7.12502
lthumb 6.56305 35.1937
rfemur -39.2456 -11.4923 15.9293
rtibia 46.003
rfoot 4.71389 2.42008
rtoes -22.2047
lfemur -20.6897 -10.7112 0.115223
ltibia 28.4805
lfoot 4.1957 7.92812
ltoes -24.2336
73
root 13.4353 16.8193 -5.98303 -4.29059 -19.5759 3.5956
lowerback 17.0959 2.21913 -2.76801
upperback 2.78463 2.37707 -0.158265
thorax -6.69499 1.20344 0.865775
lowerneck -16.5357 -4.72833 -10.965
upperneck 19.3358 -5.55012 8.25421
head 9.366 -2.53048 3.94875
rclavicle -1.20762e-014 2.10712e-014
rhumerus -54.9047 13.0596 -90.4269
rradius 109.082
rwrist -11.1042
rhand -6.72691 19.487
rfingers 7.12502
rthumb 19.1334 -9.5918
lclavicle -1.20762e-014 2.10712e-014
lhumerus -42.9036 -1.86984 82.7535
lradius 104.063
lwrist 17.35
lhand -19.7784 5.08868
lfingers 7.12502
lthumb 6.55372 34.9673
rfemur -40.0556 -11.6748 15.4529
rtibia 45.2244
rfoot 5.83842 3.77768
rtoes -19.9288
lfemur -20.1538 -11.7125 0.517117
ltibia 27.2047
lfoot 4.55198 7.66077
ltoes -25.0286
74
root 13.4121 16.6871 -5.6552 -4.4033 -20.5281 3.79559
lowerback 16.9241 2.38103 -2.57145
upperback 2.96709 2.62147 -0.291368
thorax -6.40009 1.31237 0.56807
lowerneck -16.4532 -4.95469 -11.0976
upperneck 19.248 -5.822 8.19793
head 9.35298 -2.67403 3.91193
rclavicle -6.4605e-014 1.66979e-014
rhumerus -53.9963 13.226 -90.1272
rradius 108.917
rwrist -11.8773
rhand -6.60674 18.9704
rfingers 7.12502
rthumb 19.249 -10.097
lclavicle -6.4605e-014 1.66979e-014
lhumerus -43.3885 -2.04603 83.0969
lradius 103.81
lwrist 17.5993
lhand -20.0136 4.96941
lfingers 7.12502
lthumb 6.32672 34.8549
rfemur -41.2855 -12.012 15.6612
rtibia 44.6336
rfoot 7.32357 5.85156
rtoes -21.7274
lfemur -19.6275 -12.1417 0.96393
ltibia 26.5352
lfoot 5.00502 7.47555
ltoes -26.7571
75
root 13.3916 16.5473 -5.32513 -4.73497 -21.3763 3.97434
lowerback 16.9287 2.45793 -2.38282
upperback 3.13267 2.7554 -0.291055
thorax -6.22075 1.37057 0.436243
lowerneck -16.244 -5.21137 -11.579
upperneck 19.2604 -6.10145 8.29559
head 9.36992 -2.8344 3.98949
rclavicle -1.68967e-015 4.77083e-015
rhumerus -53.0049 13.669 -89.6967
rradius 108.569
rwrist -12.6902
rhand -6.79699 18.995
rfingers 7.12502
rthumb 19.0661 -10.0905
lclavicle -1.68967e-015 4.77083e-015
lhumerus -43.8437 -2.02665 83.6599
lradius 103.504
lwrist 17.9665
lhand -19.9939 5.28598
lfingers 7.12502
lthumb 6.3457 35.1709
rfemur -42.2727 -12.5189 15.9332
rtibia 44.5087
rfoot 8.32164 7.25828
rtoes -21.1066
lfemur -18.9469 -12.0026 1.16889
ltibia 26.4389
lfoot 4.93127 7.24309
ltoes -28.1785
76
root 13.37 16.4065 -4.99221 -5.27316 -22.2509 4.21022
lowerback 16.9791 2.47816 -2.2361
upperback 3.32087 2.80557 -0.286147
thorax -6.04145 1.38895 0.350709
lowerneck -15.8254 -5.47153 -11.8404
upperneck 19.0811 -6.41281 8.18848
head 9.27239 -3.01837 3.95323
rclavicle 6.98728e-014 -1.55052e-014
rhumerus -52.1111 14.2197 -89.3532
rradius 108.278
rwrist -13.4572
rhand -7.03728 19.2993
rfingers 7.12502
rthumb 18.835 -9.80884
lclavicle 6.98728e-014 -1.55052e-014
lhumerus -44.3063 -1.98518 84.3982
lradius 103.122
lwrist 18.2239
lhand -20.2177 5.76709
lfingers 7.12502
lthumb 6.1296 35.6584
rfemur -43.0715 -13.0208 16.1791
rtibia 44.5637
rfoot 9.50937 8.26683
rtoes -15.1505
lfemur -18.3047 -11.5038 1.04734
ltibia 27.4603
lfoot 3.27637 6.99971
ltoes -28.7553
77
root 13.3492 16.26 -4.6604 -5.99775 -23.1255 4.67944
lowerback 17.0215 2.51915 -2.27355
upperback 3.57956 2.84415 -0.371599
thorax -5.78608 1.40328 0.278135
lowerneck -15.5898 -5.79881 -11.7549
upperneck 18.8985 -6.83942 7.87771
head 9.19989 -3.24721 3.77021
rclavicle -4.91992e-014 2.50469e-014
rhumerus -51.1329 14.5623 -89.0863
rradius 108.114
rwrist -14.2669
rhand -6.95863 19.5213
rfingers 7.12502
rthumb 18.9106 -9.57941
lclavicle -4.91992e-014 2.50469e-014
lhumerus -44.4349 -2.19335 85.1597
lradius 102.515
lwrist 18.2652
lhand -20.4497 5.56726
lfingers 7.12502
lthumb 5.90567 35.465
rfemur -43.9535 -13.9394 16.5786
rtibia 45.1415
rfoot 10.5869 10.0153
rtoes -9.54913
lfemur -17.6492 -10.6817 0.559381
ltibia 29.0062
lfoot 1.37536 7.80356
ltoes -25.3415
78
root 13.3269 16.1214 -4.35018 -6.65198 -23.9276 4.7374
lowerback 17.3946 2.49228 -1.98648
upperback 3.70054 2.85237 -0.282196
thorax -5.84877 1.40085 0.197609
lowerneck -14.9834 -6.12357 -11.8057
upperneck 18.5942 -7.27837 7.61548
head 9.02503 -3.49451 3.6324
rclavicle 1.17979e-013 -2.26615e-014
rhumerus -50.3764 14.909 -88.805
rradius 108.166
rwrist -15.0735
rhand -6.94277 19.2749
rfingers 7.12502
rthumb 18.9259 -9.82437
lclavicle 1.17979e-013 -2.26615e-014
lhumerus -44.7086 -2.35478 86.1716
lradius 101.903
lwrist 18.0641
lhand -20.4172 5.41086
lfingers 7.12502
lthumb 5.93699 35.3077
rfemur -44.7438 -14.7699 17.5062
rtibia 45.9792
rfoot 10.9429 11.2651
rtoes -6.04439
lfemur -16.7433 -8.43312 0.223976
ltibia 31.2259
lfoot -0.726396 6.01227
ltoes -30.7033
